<svg xmlns="http://www.w3.org/2000/svg" width="17.378" height="22" viewBox="0 0 17.378 22">
  <path id="facebook-boxed-svgrepo-com" d="M352.046,9.074l-.431,2.585h-5.177v9.048h-3.146V11.659h-4.719V9.074h4.719V6.7c0-3.287,2.457-5.412,6.262-5.412a30.369,30.369,0,0,1,3.233.136l-.046,2.448-2.419,0a4.584,4.584,0,0,0-2.78.752,2.788,2.788,0,0,0-1.1,2.356V9.074h5.608ZM348.6,5.59a2.8,2.8,0,0,1,1.656-.42h4.036l.087-4.784L353.77.262A23.057,23.057,0,0,0,349.555,0c-4.686,0-7.835,2.7-7.835,6.7V7.781H337v5.17h4.719V22h6.292V12.952h4.974l.864-5.17h-5.838V6.989a1.66,1.66,0,0,1,.587-1.4Z" transform="translate(-337)" fill="#fff" fill-rule="evenodd"/>
</svg>
