<svg xmlns="http://www.w3.org/2000/svg" width="27.877" height="22" viewBox="0 0 27.877 22">
  <path id="youtube-svgrepo-com-2" d="M26.765,18.864A4.6,4.6,0,0,1,23.706,21.4a57.086,57.086,0,0,1-9.758.6h-.017a57.308,57.308,0,0,1-9.759-.6,4.6,4.6,0,0,1-3.061-2.54C1.066,18.756,0,16.176,0,11s1.065-7.757,1.11-7.864A4.6,4.6,0,0,1,4.171.6,57.1,57.1,0,0,1,13.931,0a57.38,57.38,0,0,1,9.775.6,4.6,4.6,0,0,1,3.061,2.538c.045.108,1.113,2.689,1.113,7.865S26.811,18.756,26.765,18.864ZM25.172,3.878A2.9,2.9,0,0,0,23.387,2.4a57.125,57.125,0,0,0-9.439-.567A57.334,57.334,0,0,0,4.489,2.4,2.9,2.9,0,0,0,2.7,3.881,20.673,20.673,0,0,0,1.744,11a20.661,20.661,0,0,0,.962,7.123A2.9,2.9,0,0,0,4.489,19.6a57.176,57.176,0,0,0,9.441.566h.017a57.157,57.157,0,0,0,9.44-.566,2.9,2.9,0,0,0,1.784-1.481A20.652,20.652,0,0,0,26.134,11,20.665,20.665,0,0,0,25.172,3.878ZM11.8,16.359a.832.832,0,0,1-.885.027.925.925,0,0,1-.45-.8V6.417a.923.923,0,0,1,.447-.8.833.833,0,0,1,.883.02l6.986,4.543a.942.942,0,0,1,.006,1.555Zm.408-8.3v5.862l4.467-2.957Z" transform="translate(-0.001)" fill="#fff"/>
</svg>
